<svg xmlns="http://www.w3.org/2000/svg" viewBox="0 0 1920 1080" width="1920" height="1080">
  <defs>
    <linearGradient id="medicalGrad" x1="0%" y1="0%" x2="100%" y2="100%">
      <stop offset="0%" style="stop-color:#4facfe;stop-opacity:1" />
      <stop offset="50%" style="stop-color:#00f2fe;stop-opacity:1" />
      <stop offset="100%" style="stop-color:#667eea;stop-opacity:1" />
    </linearGradient>
    <pattern id="dots" x="0" y="0" width="50" height="50" patternUnits="userSpaceOnUse">
      <circle cx="25" cy="25" r="2" fill="rgba(255,255,255,0.1)"/>
    </pattern>
    <pattern id="crosses" x="0" y="0" width="100" height="100" patternUnits="userSpaceOnUse">
      <g fill="rgba(255,255,255,0.05)">
        <rect x="48" y="45" width="4" height="10"/>
        <rect x="45" y="48" width="10" height="4"/>
      </g>
    </pattern>
  </defs>
  
  <rect width="100%" height="100%" fill="url(#medicalGrad)"/>
  <rect width="100%" height="100%" fill="url(#dots)"/>
  <rect width="100%" height="100%" fill="url(#crosses)"/>
  
  <!-- Subtle medical icons -->
  <g opacity="0.03" fill="white">
    <g transform="translate(200,200)">
      <circle cx="0" cy="0" r="20"/>
      <rect x="-2" y="-15" width="4" height="30"/>
      <rect x="-15" y="-2" width="30" height="4"/>
    </g>
    <g transform="translate(1600,300)">
      <circle cx="0" cy="0" r="20"/>
      <rect x="-2" y="-15" width="4" height="30"/>
      <rect x="-15" y="-2" width="30" height="4"/>
    </g>
    <g transform="translate(400,800)">
      <circle cx="0" cy="0" r="20"/>
      <rect x="-2" y="-15" width="4" height="30"/>
      <rect x="-15" y="-2" width="30" height="4"/>
    </g>
  </g>
</svg>